<svg xmlns="http://www.w3.org/2000/svg" viewBox="0 0 50 50"><path d="M 38 2 C 36.941406 2 35.894531 2.164063 34.875 2.5 L 33.3125 3 L 40.09375 9.78125 L 38.875 12.875 L 35.78125 14.09375 L 29.03125 7.3125 L 28.5 8.875 C 28.164063 9.894531 28 10.945313 28 12 C 28 15.984375 30.382813 19.578125 34 21.15625 L 34 43 C 34 45.757813 36.242188 48 39 48 C 41.757813 48 44 45.757813 44 43 L 44 20 C 46.515625 18.113281 48 15.160156 48 12 C 48 6.484375 43.515625 2 38 2 Z M 22.5 14 C 21.289063 14 20.128906 14.453125 19.21875 15.25 L 12.53125 21.09375 L 2.28125 23.65625 C 0.949219 23.988281 0 25.191406 0 26.5625 L 0 32 C 0 33.644531 1.355469 35 3 35 L 4.09375 35 C 4.5625 37.273438 6.59375 39 9 39 C 11.40625 39 13.4375 37.273438 13.90625 35 L 32 35 L 32 33 L 13.90625 33 C 13.4375 30.726563 11.40625 29 9 29 C 6.59375 29 4.5625 30.726563 4.09375 33 L 3 33 C 2.433594 33 2 32.566406 2 32 L 2 26.5625 C 2 26.097656 2.300781 25.707031 2.75 25.59375 L 13.25 22.96875 C 13.402344 22.929688 13.539063 22.855469 13.65625 22.75 L 20.53125 16.75 C 21.078125 16.269531 21.773438 16 22.5 16 L 27 16 L 27 14 Z M 9 31 C 10.667969 31 12 32.332031 12 34 C 12 35.667969 10.667969 37 9 37 C 7.332031 37 6 35.667969 6 34 C 6 32.332031 7.332031 31 9 31 Z"/></svg>
