<svg viewBox="0 0 20 20" fill="none" xmlns="http://www.w3.org/2000/svg">
<path id="vector" d="M10.7072 0L0.616776 10.0905C0.218882 10.4884 0 11.0168 0 11.5789C0 12.1411 0.218882 12.6695 0.616776 13.0674L6.93257 19.3832C7.33046 19.7811 7.85895 20 8.42105 20C8.98316 20 9.51164 19.7811 9.90954 19.3832L20 9.29276V0H10.7072ZM11.5789 2.10526H17.8947V8.42105L8.42105 17.8947L2.10526 11.5789L11.5789 2.10526ZM15.1007 4.31949L14.1221 5.29811C13.8611 5.09495 12.3188 4.04018 10.7525 5.6065C8.4672 7.89281 11.5088 9.58288 9.98355 11.1081C9.2204 11.8713 8.70814 11.3952 8.60814 11.2952C8.51656 11.2037 7.8653 10.6503 9.03372 9.48191L7.74054 8.18873C5.76265 10.1666 7.0403 11.7604 7.22451 12.0025L6.31579 12.9112L7.00247 13.5979L7.91118 12.6871C8.17224 12.8892 9.69438 13.9837 11.287 12.391C13.4796 10.1984 10.6942 8.2511 12.0395 6.90584C12.81 6.13426 13.2596 6.53465 13.3512 6.62623C13.5185 6.7936 13.7689 7.34025 12.8289 8.27919L14.1221 9.57237C15.92 7.77447 14.9713 6.2664 14.7944 6.00535L15.7895 5.01028L15.1007 4.31949Z" fill="white"/>
</svg>
